<svg width="120" height="24" viewBox="0 0 120 24" fill="none" xmlns="http://www.w3.org/2000/svg">
<path d="M40.3946 7.60882C40.8711 8.23326 41.2275 8.94163 41.4456 9.69761C41.6793 10.485 41.7977 11.3023 41.7965 12.1241C41.8207 13.1773 41.6185 14.2232 41.2038 15.1906C40.8462 16.0054 40.3222 16.7355 39.6659 17.3334C39.0457 17.8883 38.3212 18.3126 37.5353 18.5813C36.7794 18.8462 35.9852 18.9837 35.1847 18.9883C34.676 18.998 34.1679 18.9413 33.6736 18.8194C33.2774 18.7068 32.9176 18.5982 32.594 18.4935V24H28.7324L28.7508 5.85944H32.4731C32.5084 6.09415 32.5353 6.3238 32.5537 6.55007C32.5722 6.77634 32.589 7.00768 32.6074 7.2424C33.0287 6.71184 33.5762 6.29661 34.1991 6.03505C34.8351 5.75778 35.5208 5.61459 36.2139 5.61459C37.8444 5.56917 39.3981 6.31029 40.3946 7.60882ZM80.7741 7.60882C81.2504 8.23326 81.6068 8.94163 81.8251 9.69761C82.0588 10.485 82.177 11.3023 82.176 12.1241C82.2002 13.1773 81.998 14.2232 81.5833 15.1906C81.2257 16.0054 80.7017 16.7355 80.0454 17.3334C79.4267 17.8878 78.7039 18.3121 77.9198 18.5813C77.1639 18.8462 76.3696 18.9837 75.5692 18.9883C75.0603 18.998 74.5524 18.9413 74.0581 18.8194C73.6619 18.7068 73.3019 18.5982 72.9785 18.4935V24H69.1169L69.1253 5.85944H72.8476C72.8828 6.09415 72.9097 6.3238 72.9282 6.55007C72.9466 6.77634 72.9651 7.00768 72.9819 7.2424C73.4035 6.71218 73.9508 6.29695 74.5736 6.03505C75.2094 5.75778 75.8953 5.61459 76.5884 5.61459C78.2205 5.56748 79.7764 6.30877 80.7741 7.60882ZM5.96038 5.41535C6.91773 5.40387 7.8719 5.53187 8.79282 5.79529C9.58949 6.03439 10.3444 6.39609 11.0309 6.86755L9.38717 9.44434C8.93905 9.15542 8.46441 8.91007 7.97011 8.71149C7.39893 8.48775 6.78996 8.37765 6.17697 8.38728C5.58429 8.38728 5.15111 8.4734 4.88247 8.64394C4.6318 8.78292 4.47666 9.04836 4.47784 9.33627C4.47784 9.75166 4.75772 10.059 5.31732 10.2582C5.87693 10.4575 6.63197 10.6826 7.58227 10.9337C8.87626 11.295 9.81581 11.792 10.4013 12.4247C10.9867 13.0573 11.2789 13.8982 11.2777 14.9475C11.2957 15.5885 11.1308 16.2213 10.8026 16.7711C10.4817 17.2836 10.048 17.7151 9.53492 18.0325C8.97767 18.3794 8.36719 18.6315 7.72834 18.7789C7.05255 18.9417 6.35997 19.0237 5.66488 19.0237C4.57807 19.0296 3.49647 18.8743 2.45467 18.5627C1.53257 18.3046 0.688885 17.8194 0 17.1511L1.91572 14.6469C2.39423 15.0658 2.94829 15.3885 3.54768 15.5976C4.17126 15.8407 4.83328 15.9689 5.50202 15.9758C5.98791 15.9902 6.47263 15.9164 6.93251 15.758C7.29214 15.6415 7.52586 15.2926 7.49832 14.9137C7.49966 14.7561 7.45786 14.6013 7.37743 14.4662C7.26427 14.3029 7.11098 14.1719 6.93251 14.0863C6.64255 13.938 6.34033 13.8154 6.02921 13.7199C5.64137 13.5932 5.15111 13.4497 4.55843 13.2859C4.06531 13.155 3.58311 12.9857 3.11619 12.7793C2.65917 12.5836 2.2322 12.3232 1.84856 12.0059C1.47952 11.7 1.1768 11.3212 0.958699 10.8932C0.486067 9.89739 0.51108 8.73513 1.02586 7.76081C1.30557 7.26909 1.68687 6.84357 2.14406 6.51294C2.65799 6.14246 3.23338 5.86688 3.84318 5.69904C4.53224 5.50553 5.24496 5.40995 5.96038 5.41535ZM100.767 5.43052C101.71 5.41768 102.646 5.59752 103.517 5.95905C104.318 6.29288 105.043 6.78629 105.648 7.40955C106.246 8.03095 106.718 8.7633 107.038 9.56588C107.703 11.266 107.703 13.1562 107.038 14.8562C106.393 16.4891 105.122 17.7932 103.512 18.4766C102.643 18.8472 101.706 19.0325 100.762 19.0203C99.8133 19.0315 98.872 18.8462 97.9969 18.4766C97.1927 18.1367 96.4639 17.6389 95.8529 17.0126C95.2557 16.391 94.7841 15.6587 94.4644 14.8562C94.1286 14.0158 93.9592 13.1177 93.9657 12.2119C93.9609 11.3053 94.1319 10.4065 94.4694 9.56588C94.7891 8.76346 95.2607 8.03112 95.8579 7.40955C96.4672 6.7846 97.1967 6.29103 98.002 5.95905C98.8793 5.59836 99.8196 5.4187 100.767 5.43052ZM50.0588 5.42547C50.9859 5.40453 51.9063 5.58859 52.7552 5.96413C53.5104 6.31215 54.1783 6.82633 54.7095 7.46867C55.2599 8.1485 55.6682 8.93302 55.91 9.77529C56.1886 10.7309 56.3249 11.7227 56.3146 12.7185V13.3686H47.3069C47.3237 14.0554 47.6248 14.657 48.2102 15.1737C48.7957 15.6904 49.6004 15.9476 50.6246 15.9454C51.632 15.9454 52.4501 15.7963 53.0793 15.4979C53.5605 15.284 54.0207 15.0256 54.4543 14.7262L56.046 17.1967C55.9016 17.2878 55.6855 17.4369 55.3979 17.6441C55.0474 17.8876 54.6721 18.0925 54.278 18.2554C53.7502 18.4769 53.2048 18.6537 52.6478 18.7839C51.9396 18.9465 51.2149 19.0241 50.4886 19.0153C49.4948 19.0284 48.5072 18.8567 47.5756 18.5087C46.7542 18.2005 46.0057 17.7238 45.3778 17.1088C44.7688 16.5023 44.2999 15.7684 44.0044 14.9593C43.6815 14.0684 43.5217 13.1261 43.5326 12.1782C43.5304 11.3041 43.681 10.4365 43.9775 9.61487C44.2594 8.81836 44.6948 8.08551 45.2586 7.45854C45.8348 6.83072 46.5324 6.32802 47.3086 5.98102C48.175 5.59906 49.113 5.4096 50.0588 5.42547ZM17.4513 5.85944V13.1829C17.4513 13.9056 17.6264 14.4751 17.9768 14.8917C18.3271 15.3083 18.8437 15.516 19.5265 15.5148C19.8904 15.5222 20.251 15.4436 20.5793 15.2852C21.1916 14.9821 21.651 14.4363 21.8469 13.7789C21.9565 13.4373 22.0131 13.0809 22.0148 12.7219V5.85944H25.8764V18.5813H22.1441L22.0349 17.2304C21.5851 17.7471 21.0289 18.1592 20.4046 18.4378C19.7423 18.751 19.0193 18.9131 18.2875 18.9123C16.8323 18.9123 15.6812 18.4783 14.8338 17.6104C13.9864 16.7424 13.564 15.4586 13.5662 13.7587V5.85944H17.4513ZM65.9234 5.61459C66.2166 5.61172 66.5094 5.62979 66.7998 5.66863C67.044 5.70578 67.2832 5.76977 67.5134 5.85944L66.8939 9.30417C66.439 9.16891 65.9662 9.10458 65.4919 9.11336C64.5752 9.11336 63.8331 9.38911 63.2656 9.94077C62.6981 10.4924 62.415 11.2748 62.416 12.2879V18.5813H58.5258V5.85944H62.2481L62.3824 7.45854C62.7617 6.97374 63.2152 6.55261 63.7256 6.21067C64.2909 5.81334 65.0235 5.61459 65.9234 5.61459ZM91.8653 5.61459C92.1583 5.61172 92.4513 5.62979 92.7418 5.66863C92.9864 5.70594 93.2262 5.76994 93.457 5.85944L92.8358 9.30417C92.381 9.16891 91.908 9.10458 91.4339 9.11336C90.5171 9.11336 89.7755 9.38911 89.2092 9.94077C88.6429 10.4924 88.3596 11.2748 88.3596 12.2879V18.5813H84.4678V5.85944H88.1901L88.3244 7.45854C88.7037 6.97374 89.1572 6.55261 89.6676 6.21067C90.2339 5.81334 90.9666 5.61459 91.8653 5.61459ZM116.009 0C116.712 0.0028706 117.411 0.103343 118.086 0.298882C118.79 0.499994 119.443 0.85122 120 1.32892C119.731 1.74432 119.457 2.15583 119.177 2.56329C118.897 2.97074 118.623 3.38225 118.355 3.79765C118.084 3.59755 117.784 3.44203 117.465 3.33666C117.144 3.22572 116.807 3.16882 116.467 3.1678C115.982 3.14585 115.511 3.33396 115.173 3.68451C114.849 4.02223 114.688 4.51023 114.688 5.14852V5.85436H117.681V8.91915H114.688V18.5762H110.826L110.828 8.92422H108.778V5.85942H110.828V5.20762C110.807 4.40723 110.959 3.61156 111.273 2.87567C111.544 2.25866 111.945 1.70801 112.448 1.26138C112.933 0.837205 113.497 0.514684 114.107 0.312391C114.72 0.105538 115.362 0 116.009 0ZM75.6582 8.94281C75.2625 8.93487 74.8703 9.01812 74.5115 9.18597C74.1884 9.3403 73.9023 9.56269 73.672 9.83776C73.446 10.1106 73.2724 10.4232 73.1599 10.7597C73.0459 11.1008 72.9891 11.4586 72.992 11.8185L72.9869 15.2176C73.4906 15.5553 74.2371 15.7242 75.2267 15.7242C76.1792 15.7242 76.9297 15.4034 77.4782 14.7617C78.0267 14.12 78.3009 13.2656 78.3009 12.1984C78.3009 11.7869 78.2514 11.3769 78.1532 10.9776C78.0643 10.6039 77.9085 10.2496 77.6931 9.93233C77.4841 9.63226 77.2072 9.3864 76.8855 9.21467C76.5052 9.02285 76.0833 8.92947 75.6582 8.94281ZM35.2837 8.94281C34.8882 8.93487 34.4958 9.01812 34.137 9.18597C33.8141 9.3403 33.5279 9.56269 33.2975 9.83776C33.0715 10.1106 32.8979 10.4232 32.7854 10.7597C32.6714 11.1008 32.6147 11.4586 32.6175 11.8185L32.6125 15.2176C33.1162 15.5553 33.8628 15.7242 34.8522 15.7242C35.8037 15.7242 36.5542 15.4034 37.1038 14.7617C37.6533 14.12 37.9276 13.2656 37.9265 12.1984C37.9268 11.7869 37.8768 11.3767 37.777 10.9776C37.6896 10.6037 37.5341 10.2494 37.3187 9.93233C37.1095 9.63175 36.8319 9.3859 36.5094 9.21467C36.1298 9.02268 35.7084 8.9293 35.2837 8.94281ZM100.762 8.82121C100.31 8.81378 99.863 8.91088 99.4543 9.1049C99.0827 9.28287 98.7555 9.54241 98.4973 9.86477C98.2404 10.1886 98.0436 10.5566 97.9164 10.9505C97.6477 11.7698 97.6477 12.654 97.9164 13.4733C98.0458 13.8701 98.2422 14.2414 98.4973 14.5709C98.7516 14.9005 99.0796 15.1653 99.4543 15.3443C99.8633 15.5371 100.311 15.633 100.762 15.6246V15.6296C101.21 15.6374 101.653 15.5398 102.057 15.3443C102.428 15.16 102.755 14.8959 103.014 14.5709C103.274 14.245 103.471 13.8726 103.595 13.4733C103.846 12.6513 103.846 11.7725 103.595 10.9505C103.473 10.5539 103.276 10.1849 103.014 9.86477C102.751 9.54714 102.425 9.28811 102.057 9.1049C101.653 8.91003 101.21 8.81277 100.762 8.82121ZM50.0252 8.46325C49.6184 8.45464 49.2144 8.53299 48.8398 8.6929C48.5215 8.83018 48.2329 9.02859 47.9903 9.27715C47.7727 9.50005 47.5986 9.76161 47.4765 10.0488C47.3669 10.3107 47.3099 10.5919 47.3086 10.8762H52.6478C52.6431 10.5924 52.586 10.3119 52.4799 10.0488C52.3684 9.76279 52.2037 9.50089 51.9946 9.27715C51.7648 9.0318 51.4899 8.83339 51.1854 8.6929C50.8204 8.53096 50.424 8.45244 50.0252 8.46325Z" fill="#FF6363"/>
</svg>
